<?xml version="1.0" encoding="UTF-8"?>
<svg version="1.1" viewBox="0 0 2048 1598" width="1280" height="1280" xmlns="http://www.w3.org/2000/svg">
<path transform="translate(991,3)" d="m0 0h10l3 1 1 3 5-1 3-3h12l20 1 5 1 5-1h24l40 5 35 6 56 13 28 8 32 10 31 12 29 12 32 15 46 25 14 9 14 8 6 5 17 10 8 7 10 6 14 11 11 9 7 3 5-1 9-4 31-15 23-11 17-8 19-10 94-47 48-23 3-1h9l8 4 8 8 10 17 26 52 11 23 13 26 11 25 12 22 7 16 9 15 17 34 11 23 8 16 14 29 8 16 10 19 63 126 13 28 8 16 11 23 3 2v32l-18 10-19 10-23 11-78 39-23 11-16 8-39 19-16 8-13 7v61l-1 5v21l-2 33-8 58-7 37-14 55-8 23-3 7-2 10-11 29-8 19-9 21-20 41-8 14-15 26-10 16-8 12-14 20-11 15-12 16-9 11-11 14-12 13-9 10-9 9-7 8-15 15-8 7-16 15-9 8h-2v2l-22 18-13 10-16 12-20 14-18 12-16 9-14 9-16 9-10 6-16 8-19 9-16 8-25 10-5 1-6 4-28 10-11 3-27 9-37 10-32 7h-6l-9 3-35 5-40 4-39 2-10 1-3 1 1-4 19-2 2-2 19-1 3-1-4-2h-15l-2-5-11 1-30 1-8 2-10 1-4-1-1 2-4-1-10 2-6 1h11v4h-23l-3-1h-12l-40-4-22-4-29-6-29-7-8-3-21-5-21-6-28-10-38-15-26-12-38-19-8-5-12-6-18-11-11-7-21-14-19-13-19-14-14-11-16-12-6-2-20 9-41 20-50 25-23 11-32 16-19 9-7 2-9-1-8-4-7-7-12-21-18-36-8-18-10-19-16-32-19-39-69-138-11-23-79-158-11-23-13-27-2-3v-14l9-11 10-6 34-17 21-10 19-10 23-11 40-20 23-11 16-8 11-6 2-5v-37l2-43 3-29 5-40 6-30 6-28 7-28 9-29 5-16 12-32 16-38 13-27 12-22 8-15 10-17 15-24 16-24 13-18 11-14 11-13 10-13 12-14 18-20 10-10 6-7 8-7 11-11 8-7 14-12 16-13 6-5h2v-2l14-11 19-14 33-22 21-13 24-14 17-9 5-1v2h2v-4l8-5 23-11 23-10 28-11 31-11 34-10 48-12 10-1 10-3 21-4 44-6 18-1h15zm-18 3-3 3-1 6 2 2 11-2 1-1v-5l-4-3zm14 2 3 4 5-1-3-3zm14 27-35 1-31 2-42 5-20 3-37 8-1-3-4 1v4l-8-1-8 4-11 3h-7l-4 3-15 5h-6l-2-1-6 5-15 5-10 1-3 4-30 12 1-7-3 3-1 5-12 6-24 11-36 18-10 6-11 3-2 5-13 8-20 13h-7l-1 3 1 2-5-1-4 7-10 7-6 4-13 11-14 11-11 9-15 14-8 7-12 12-8 7-15 16-2 4h-2l-9 11-9 9-11 14-11 13-10 13-9 12-11 16-18 27-10 17-13 24-10 19-8 16-14 31-11 28-11 31-6 19-8 29-8 32-8 48-4 30-3 25-1 18v42l2 2 6-1 16-7 4-4v-23l2-36 4-38 7-42 8-35 10-37 12-36 11-29 7-16 9-20 14-28 13-24 13-22 11-17 10-15 12-17 12-16 13-16 12-14 10-11 7-8 3-3v-2h2l7-8 13-13 8-7 10-10 11-9 8-8 14-11 12-10 14-10 11-8 14-9 8-6 15-10 24-14 28-15 16-8 25-12 12-5 11-5 30-11 40-13 48-12 37-7 21-3v2h3v-3l46-4 21-1h58l34 2 36 4 43 7 27 6 35 9 43 14 21 8 22 9 28 13 30 15 5 3h2l2 5 3 2 10 2 25 15 22 15 18 13 8 6 2 5 6-2 10-8 7-5-1-4-16-11v-5l-2-2-8-1-29-19-19-12-28-16-25-13-28-13-35-14-25-9-33-11-29-8-28-7-32-6-43-6-42-4-24-1zm-11 29v2l-27 1-28 2-31 3-29 5-29 6-43 11-45 14-28 11-30 13-35 17-24 13-16 9-42 28-17 13-12 9-14 11-14 12-15 13-48 48-9 11-11 12-9 12-10 13-10 14-12 17-12 18-13 21-14 25-12 23-11 24-12 29-13 36-13 41-7 29-7 33-7 46-3 28-2 29v20l2 2 6-1 34-16 52-26 27-14 23-11 36-18 20-9 16-9 3-7 6-24 12-36 11-27 15-32 13-23 10-17 14-21 12-17 10-13 11-12 9-11 34-34 8-7 14-12 19-14 22-15 15-10 21-12 27-14 29-13 26-10 31-10 24-6 35-7 21-3 24-2 21-1h33l41 3 33 4 36 8 35 10 28 10 28 11 8-1 19-9 19-10 19-9 19-10 25-12 78-39 28-13 7-5-1-4-10-6-51-33-9-5-5-4-10-4-13-8-12-7-18-8-12-5-27-11-38-14-30-9-38-10-5-2-12-2-2-1-19-3-25-4-40-4-39-2-36-1zm-284 20 1 4 1-4zm765 90-5 5 2 3 5-1 3-3v-3zm7 1m199 84-7 6-11 5-7 3-19 10-16 8-30 14-16 8-21 10-5 2 1 5 6 14 9 17 11 23 8 17 5 9 9 17 5 12 9 17 11 23 13 26 10 19 12 25 8 16 8 17 8 16 10 19 9 19 3 3 9-1 9-4 16-9 27-12 28-14 47-24-1-7-8-17-5-8-1-4h2l-1-5-5-4-7-10-7 1-4 3-12 5-3 2-6-1-2 4-15 8-23 11-6 3-5 1-8 6-6 1-6-10-10-19-10-21-1-3 1-3-5-3-9-19 5-4 17-8 16-8 21-10 18-10 8-5-1-9-1-4-3-1-18-36-2-3-7 1-9 4-35 17-19 10-13 6h-6l-1-5-3-4h-2l-2-6-16-31-4-9-2-8 16-8 17-8 5-2 8-5 19-9 22-12 3-2v-5l-3-5-2-10-5-5-11-23-5-10zm-698 36-34 3-39 6-48 12-29 10-27 11-16 7-36 19-16 10-15 10-17 12-13 10-14 12-11 9-36 36-9 11-9 10-10 14-13 18-15 23-4 7-10 19-9 17-9 20-9 23-12 37v7h6l20-10 4-9 8-22 3-6 4-13 13-29 5-8 8-16 7-11 11-16 8-12 13-17 10-13 7-7 8-10 20-20 2-1v-2l4-2 10-9 11-9 8-7 13-10 16-11 14-9 16-9 10-6 16-8 30-14 21-8 40-12 35-8 31-5 20-2h61l35 3 30 5 44 11 25 8 4 1h8l16-9 2-4-9-4-19-7-22-7-36-9-35-6-15-2-36-2zm-20 27-13 2-21 2-4 3 3 9 9 17 9 19 8 16 16 33 9 17 3 2 5-1 23-11 21-11 2-3-12-26-12-22-23-46zm79 0 1 6 25 50 8 15 1 1h6l25-12 15-8 6-3-1-7-8-16-8-17-6-2-25-4-24-3zm-169 18-36 12-15 6-2 3 8 18 47 94 6 15 2 2 7-1 12-5 17-8 13-8h3l3 3-1-4-4-11-34-68-11-23-8-16-5-9zm590 25-13 4-14 7-15 15-8 16-5 22-2 5 1 1 1 30 4 27 3 14 12 32 13 30 14 28 11 19 4 6 12 17 8 10 12 14 7 7 11 9 7 6 18 10 15 6 10 2h22l15-4 11-6 12-12 6-10 4-8 4-17v-36l-5-27-4-13-2-9-1-2-4-1-25-1-10-1h-10l4 16 2 6v9l2 4 1 7v19l-4 13-4 6-1 3-15 5-6-1-6-4-2-2h-8l-13-10-7-7-11-14-10-15-9-15-15-30-3-7-7-14-6-18-4-14-3-14v-22l3-12 6-10 9-6 5-2h9l12 4 11 8 7 6 9 11 6 6h5l6-7 3-5 7-5 10-14-1-4-12-17-14-15-11-10-15-10-16-7-7-2zm-689 18-14 7-29 19-4 3 1 6 11 23 8 16 19 39 5 11 3 7 6 10 4 10 3 3 9-1 16-8 21-10 6-4-1-7-9-19-10-19-11-22-11-23-16-32-4-7zm254 41-2 1v2l5 1v-3zm312 7-12 4-22 12-2 1 1 6 35 70 14 29 8 16 23 47 13 25 10 21 8 16 13 27 10 19 3 7-1 3 3 1 12 23 3 3 8-1 24-12 6-4-1-7-8-16-13-27-10-19-12-25-8-16-14-27-14-29-1-5 2-3-4-4-4-2-8-16-4-9-4-6-7-16-8-16-8-15-8-16-14-29-6-10zm-655 17-9 7-22 22-9 13 1 5 11 22 4 9-1 5 5 3 7 16 12 22 6 12 5 1 15-6 19-10 9-4 8 1 1-1v-5l-6-7-12-23-23-46 1-6-1-2-5-1-2-5-8-17-4-5zm554 38-14 2-8 4-35 15-3 2-7 2-5 3-8 5-27 15-3 5 1 4 3 3 1 10 5 5 6 10 11 22 13 28 7 12 11 23 19 38 10 21 3 8 10 19 19 38 11 21 11 23 10 19 3 4h7l29-14 3-3-3-9-20-41-20-40-13-25-5-11-1-4 6-2 8-4h11l10 4 10 8 13 12 15 13 7 7 8 7 10 10 8 7 16 15 8 8 7 5 5 1 10-4 16-8 15-8v-4l-10-10h-2l-2-4-18-18h-2l-2-5-13-11-20-20-8-7-3-3-2-6h-4l-5-2-7-6-14-8-11-5h-2l10-13 4-8 4-14v-25l-3-14-6-20-8-19-11-18-10-13-14-15h-2l-2-4-14-9-11-4zm-614 38-1 2h2zm-365 12-2 9-1 5 4 1 4-5-2-9zm348 4-5 3-5 12-7 12-4 9-10 20 1 5 14 28 4 4 5-1 25-12 19-10 1-4-14-30-18-35-1-1zm453 32-16 5-23 10-50 25-7 6 1 4 6 10 24 48 3 10 8 13 9 20 8 14 15 30 5 12 8 16 17 33 8 16 18 37 8 16 9 17 4 10 5 4 9-2 25-12 4-4-7-16-22-45-21-42-5-11v-2l23-12 17-10 12-9 7-8 5-12 3-12 1-18v-15l-3-4-4-15-9-24-7-13-1-5-1-3-5-5-9-15-9-12-14-15-12-7-11-6-8-2zm-208 107-23 11-28 13-60 30-22 12-5 3 2 5 14 31 10 17 4 1 24-11 22-11 4-1 3 9 9 17 9 20 10 19 15 31 32 64 23 47 15 31 9 16 6 2 25-12 10-7-2-5-8-16-13-28-10-19-39-78-13-27-10-19-12-25-10-19-9-19v-3l22-11 19-10 7-4-1-6-4-10-10-19-9-17-2-2zm-203 98-21 6-17 9-10 8-10 16-5 17v29l6 24 6 15 7 15 10 15 12 14 15 13 14 8 13 4 19 3h21l1 3 3-1 1-2h28l10 4 9 6 10 16 3 10 2 8v8l-3 13-4 6-3 2-2 4-8 4-6 2h-8l-12-4-12-9-10-11-12-16-2-2-7 1-12 8-5 3-11 10-2 5 4 2 9 15 8 11 9 11 10 11 11 9 10 7 14 7 13 3h22l14-4 14-7 12-9 8-9 8-13 4-12 1-9v-19l-1-12-6-21-6-16-8-17-9-15-10-14-13-14-13-10-11-6-13-4-24-3h-13l-14 1h-10l-17-2-10-3-6-5-6-9-4-11v-11l5-12 5-6 12-6 11-1 9 3 9 7 8 9 7 10 2 2 7-1 30-18 1-3-7-13-8-11-10-15-4-2-1-2h-2l-1-3-10-8-14-9-14-5-15-2zm1119-6-20 9-3 2v32l-2 1v2l2 1-1 29-3 32-2 13-3 23-2 12-8 39-11 42-6-1 1-8 7-24 8-35 4-21 1-2 1-14 3-19 5-52 1-18v-25l-1-2-10 3-58 28-23 11-25 13-16 8-29 14-28 13-7 4-16 9-2 2-5 26-7 26-11 35-12 29-11 24-13 25-10 16-13 21-8 11-6 8v2l-4 2-6 10-5 6-5 5-7 6-7 11-14 14-8 7-13 13-11 9-7 7-32 24-22 14-20 12-22 12-28 13-29 12-30 10-45 11-33 6-15 2-50 3h-17l-44-3-23-3-33-6-40-10-41-14-23-10-25-11-7 1-23 11-21 11-52 25-40 20-23 11-20 10-19 10-4 4 18 13 17 12 21 14 18 11 18 10 22 12 16 8 19 9 19 8 28 11 36 12 55 15 50 9 33 4 30 3 6 3 3-1 78-1 38-3 42-6 27-5 39-9 26-7 37-12 29-11 27-12 23-11 20-10 23-13 18-11 27-18 14-10 19-14 12-10 8-7 16-13 12-11 11-9 22-22 7-8 2-4h2l7-8 9-10 9-11 10-12 12-16 10-13 17-26 16-25 10-18 12-23 11-22 11-26 11-28 12-36h7l-12 37-11 27-12 28-11 23-10 19-15 26-13 21-12 18-13 18-7 9-10 13-11 14-8 10-8 9v2h-2l-7 8-27 27v2l-4 2-7 7-11 9-13 13-14 11-10 9-9 7-19 14-24 16-6-1v3 2l-9 6-24 14-21 12-21 11-28 13-32 13-25 9-27 9-40 11-33 7-13 1-3-3-2 1v2h3v2l-12 2-1-5h-1l-1 5-21 3-30 3-18 1h-80l-28-2-40-5-38-7-27-6-41-11-44-15-30-12-24-11-25-12-28-15-22-13-14-9-15-10-20-14-19-14-7-1-21 12 1 5 9 8 9 6 11 9 19 13 18 12 19 12 28 16 16 9 28 13 39 17 40 15 35 11 44 11 35 7 33 5 46 5 24 2 2 1 72-2 42-4 45-6 28-6 21-4 45-13 36-12 37-14 11-5 10-3 3-3 14-6 19-10 21-11 22-13 24-15 17-12 16-11 18-14 17-13 13-12 8-7 16-15 9-9 8-7 15-16 16-17 9-11 13-15 16-20 13-19 13-18 13-21 15-26 20-38 11-23 10-22 14-40 8-24 10-34 6-24 10-52 4-27 4-50 1-35v-33l-1-1zm-1243 69-24 12-25 12-44 22-21 10-10 6-1 4 7 16 10 18 23 46 8 17 10 19 10 21 8 16 9 19 54 108 9 19 3 7 3 3 5 1 25-12 17-8 16-8 21-11 18-8 22-12 12-6 1-5-19-39-6-10-5-1-12 5-25 12-16 8-33 16-5 3h-3l-15-29-19-38-3-8v-4l17-10 42-21 21-10 3-2-1-6-9-20-8-16-6-10-2-2h-7l-76 38h-6l-8-15-11-23-8-17-2-3 1-6 5-2 21-10 19-10 38-19 5-4-1-8-5-13-4-6-8-16-5-9-2-1zm975 65-14 5-11 6-3 3-2 10h-3v-5l-3-1-2 1 1 4 5 2-2 9-4 7-1 9-4 10-4 12-7 17-7 15-14 27-28 42-10 14-13 16-9 10v2h-2l-7 8-18 18-8 7-14 12-10 8-17 13-27 18-15 9-19 10-26 13-30 12-31 10-32 8-31 6-13 2-24 2h-60l-30-2-30-5-26-6-37-11-26-9-9-3-9 2-19 11-1 3 36 15 36 12 23 6 29 6 33 5 21 2h67l28-1 1 5h4l-1-6 37-6 30-7 26-8 19-6 11-4 20-9 12-5 19-10 26-14 19-12 17-12 10-8 11-8 21-18v-2l4-2 29-29 9-11 9-10 9-11 14-19 17-26 9-15 8-15 11-23 9-21 11-29 5-15 9-36-1-4zm-1174 37-16 5-20 9-19 9-19 10-27 14-1 5 8 16 23 47 11 23 77 154 11 23 13 25 8 16 4 5 7-1 35-17 23-11 14-8 18-10 12-9 7-9 5-11 2-10v-20l-4-22-8-24-9-19-10-16-11-14-14-11-13-8-15-4h-4l3-5 2-13v-11l-3-19-5-16-7-17-11-18-8-10-8-9-13-10-13-7-7-2zm1085 6-13 5-31 16-4 5 9 17 13 28 12 23 5 10 5 4 4-2 8-14 9-16 11-21 1-7-8-17-3-6v-7l-6-4-4-10-4-4zm-97 48-18 8-16 8-14 8 9 19 1 7 5 5 16 33 10 19 19 39 5 4 7-4 16-16 7-8 9-10 2-3-1-5-13-28-11-23-2-5-12-22-8-16-5-9-1-1zm-95 47-16 7-19 10-12 6-2 4 40 80 8 17 10 19 10 20 4 4 5-1 12-7 19-12 10-7 2-4-9-19-7-14-8-17-8-16-8-17-8-16-12-23-7-14zm-96 48-16 6-23 12-11 6 1 4 55 110 4 9 7 12 2 2 9-1 28-10 15-6 2-3-12-25-20-41-32-64-6-11zm-98 48-24 11h-5l-1 3-14 7-6 2 2 4 7 12 13 28 32 64 4 1 29-2 28-4 2-1-2-5-12-23-3-6-1-5h-2l-2-5-13-27-8-16-14-29-6-9zm-95 47-16 7-19 10-13 7-1 4 8 15 9 20 5 9 5 3 27 5 31 4h6l-1-7-18-37-16-32-5-8zm240 368-1 3 3-1zm9 11v3h2l-1-3zm-238 23v2h3v-2z" fill="#D4362C"/>
<path transform="translate(945,655)" d="m0 0 4 2 3 2 3 1v2h4l1-2-3-5 4 1 4 6h3l1 3-3 4 2 5 6 3-1-3h3v6h2l1 4-1 2 2 6-1 2 2 1v4l2 5 1 2-3 2 5 3v2l-3 3 4 2-2 3 2 1 2 6 2 1-1 4 1 5 2 1 1 4 4 7v3h3l3 6 7 3 2 3v3h2l1 5 2 4 1 7 6-1 2 1v2l6 1 2 3-4 5-6-3-1 2-2-1v2h-2l-1 3-4-1 1-2-4-1-3 2 1 3 4 2 1 4 4 1h6l2 2-1 4 2 4-5-2-3 1-1-2-7 1-2 2v3l-2 4 4 3 5-1v-2l11-4h2v-2l6 2v9l4 1 1 4-4 5-5-1-1-5-1-4-4-2-2 13-4 1h-3v4 5l-2 5-8 4 2 1-3 1v2h2v2l5-1v2l-5 1-1 3-2-1v2h-3l-1 2-2-1 1 9 5-1v-2h3v-2l4-1v2h2v4l-5 1v-2h-2l1 5-6 1-5 1v-4h-2v2l-2 1-1 3-7 1-2 5h-2l-2 4h-3v-2l-9-1-3-3 1-4-8 1-5 9-5 2 1 4 6 2h3l1 4-7 2-3-1-6 2v6l3 1 2 6-7 1-5-1h-9l-1-2h2l-1-4h-2l-3-6v6l-4 1h-2v2l-4 1-27-54-13-27-10-19-12-25-10-19-9-19 1-4 22-11 19-10 6-3-1-6-4-10-10-19-5-11 3-3 1-4 4-2 9 1 5 1 4-1h4l5-4h4v-3l2 1 2 4 5 1h1l2-1-1-4 7 1 2-5 7-1 2 1-2 5-6-1-1 5h11l2-1 2-5h-5l1-2 2 1 1-2 5 1-1-3 6-2 3-8z" fill="#E62A3B"/>
<path transform="translate(675,771)" d="m0 0h2l2 3 9 2 2 2 6 3 3 4 3 1v2h3l1 3-1 4 5 2 9 3v-2l5-1 3-1 3 5-1 4 7-1 3-3 9-3 25-12 3 2-2 9 7 3v3l10 1v2h2l3 7v4h2l-1 4 5 5 1 6 7 2 1 8-6 3 2 4h-2l-1 5 4 1 8 1 3 3-5 1v2l-4 1 2 4-1 3 4 3 3 3-2 5 1 4-2 1v-2h-7l-1-2h-2l-1 3h-3l2 6 9-1v4l5 2 1 6-2 4 2 2h3l1 2 5 1 2 5-1 1 3 2-2 5-6-2-2-2-3-2-3 4-9 3-4 2h-4-10l-4 2-4 1-2 1-5-3-14-11-11-6-13-4-24-3h-13l-14 1h-10l-17-2-10-3-7-6-6-9-4-11v-11l5-12 6-7 12-6 11-1 9 3 9 7 9 10 7 10 5 1 10-5 13-8 8-5h2l-1-5-6-11-8-11-9-14-5-3v-2h-2l-5-5-8-6 1-2-6-6-3-1v-3h-4v-2l-3 1-1-2-3-1-1-3z" fill="#E62A3B"/>
<path transform="translate(1703,1011)" d="m0 0h7l1 2-14 41-14 34-9 20-9 19-10 19-15 26-13 21-12 18-13 18-7 9-10 13-11 14-8 10-9 11h-2l-2 4-43 43-11 9-13 13-14 11-10 9-9 7-19 14-24 16-6-1 2 3-6 5-29 17-21 12-21 11-28 13-32 13-25 9-27 9-40 11-33 7-6 1h-8l-1-3h-3v2h3v2l-8 2h-4l-1-2-2 3-21 3-19 2-30 1h-31l1-8 9-1 19 1 3-3 38-3 42-6 27-5 39-9 26-7 37-12 29-11 27-12 23-11 20-10 23-13 18-11 27-18 14-10 19-14 12-10 8-7 16-13 12-11 11-9 21-21 7-8 3-4h2l2-4 13-14 9-11 10-12 12-16 10-13 17-26 16-25 10-18 12-23 11-22 11-26 11-28 10-30z" fill="#D5392F"/>
<path transform="translate(396,1127)" d="m0 0h17l7 3 6 5 9 13 6 12 3 9 1 7v15l-4 8-8 7-10 5-8 3-9 6-15 7-4-1-6-10-11-21-11-23-8-16-2-3 1-4 19-10 14-7z" fill="#D4362C"/>
<path transform="translate(922,62)" d="m0 0h8l-3 2h-5v4l2 1h11v1l-31 3-29 5-29 6-43 11-45 14-28 11-30 13-35 17-24 13-16 9-42 28-17 13-12 9-14 11-14 12-15 13-47 47-9 11-11 12-9 12-10 13-10 14-12 17-12 18-13 21-14 25-12 23-11 24-12 29-9 24-2-2 1-2h-2v2l-4 3h-3l3-10 12-31 11-23 8-18 24-44 14-23 16-24 12-17 12-16 13-16 12-14 10-11 7-8 4-5h2l2-4 18-18 8-7 10-10 11-9 8-8 14-11 12-10 14-10 11-8 14-9 8-6 15-10 24-14 28-15 16-8 25-12 12-5 11-5 30-11 40-13 48-12 37-7 15-2h6v2h3v-3z" fill="#D73E35"/>
<path transform="translate(1247,547)" d="m0 0 6 1 9 6 8 9 8 15 5 14 2 14-8 15-9 7-19 9-10 6-8 4h-3l-12-23-9-19-8-16-7-15 2-4 16-8 15-8 13-4z" fill="#D4362C"/>
<path transform="translate(1068,634)" d="m0 0 10 1 10 6 6 5 9 12 7 14 2 7 3 17-3 13-3 2h-3l1 5-5 5-22 12-7 3-4-1-9-16-8-16-6-13v-5l-4-2-8-16-5-12 1-4 17-9 17-7z" fill="#D4372D"/>
<path transform="translate(589,1392)" d="m0 0 7 4 18 12 18 11 18 10 22 12 16 8 19 9 19 8 28 11 36 12 55 15 50 9 33 4 30 3 6 3 3-1h78l-3 3-28-1v6l-1 2 31-1h19v1l-18 1h-80l-28-2-40-5-38-7-27-6-41-11-44-15-30-12-24-11-25-12-28-15-22-13-14-9-15-10-13-9 2-1 5 2v2l4-2 1-2 3 1v-2h-2z" fill="#D4382E"/>
<path transform="translate(338 1e3)" d="m0 0 9 2 6 4 9 9 8 16 3 11v14l-2 6-9 10-21 10-18 10-4-2-32-64v-2l20-11 24-11z" fill="#D4362C"/>
<path transform="translate(1384,1417)" d="m0 0h4v9l-24 14-16 9-19 10-28 13-32 13-25 9-27 9-40 11-33 7-6 1h-8l-1-3h-3v2h3v2l-8 2h-4l-1-2-2 3-21 3-19 2-30 1h-31l1-8 9-1 19 1 3-3 38-3 42-6 27-5 39-9 26-7 37-12 29-11 27-12 23-11 20-10 23-13z" fill="#AB3122"/>
<path transform="translate(494,677)" d="m0 0 2 4v2h2l3 8v3h-2l2 5-2 1-2 5-4 3-11 6h-2v2l-8 5-2 3-12 5-7 5-3 1-5 5-7 3-5 4-8 4-3 1-2 4-1 1h-7l-6 3h-5v2h-2l-1 3h-2v2l-3-1v-3l-6 4-7-1-6-1v-4h-2l1-8-1-9 27-14 23-11 36-18 20-9 16-9z" fill="#EE605B"/>
<path transform="translate(991,3)" d="m0 0h10l3 1 1 3 5-1 3-3h12l20 1 5 1 5-1h24l40 5 35 6 13 3v1h-14l-6-2h-19l-4-1h-15l-10 3h-15l-8 2-30 2-29 1-33 1-7-1h-7l-5-1-14 1-4 1-6-2-5-1-10-5h-13l-5-2h-7l-10 1-17 1-21 2-2-2 23-5 50-7 18-1h15zm-18 3-3 3-1 6 2 2 11-2 1-1v-5l-4-3zm14 2 3 4 5-1-3-3z" fill="#EE635E"/>
<path transform="translate(499,1204)" d="m0 0h1v5h10l2 7 1 4-1 2h-2l1 4v8l-1 4-2 1-1 6h-2v2h-2l-2 6-8 10h-2l-1 4-8 7h-3l-2 4-10 9-3 1v3l-11 6-4 1-1 3-5 2-11 1-8-6-2-5-2-1v-2h-3v-3l-3-1 32-16 23-13 11-7 7-6 6-10 4-11z" fill="#EE605B"/>
<path transform="translate(977,58)" d="m0 0h58l34 2 36 4 43 7 27 6 35 9 22 7 2 4-1 2 2 1-5 1-40-11-21-6-15-3-2-1-19-3-25-4-40-4-39-2-36-1-3-2v2l-27 2-40 2-3-3 2-3 10-3 24-2z" fill="#AD3223"/>
<path transform="translate(708,705)" d="m0 0 8 3-1 3-5 3-1 4 1 6-7-1 3 3v2l-6 1-1 3v-2l-4-1 1 3h-2v2h3l-1 6h-3l1-3-7 1-1 4-2-6-10 4h-2l-3-4 2-3h-6l-1 4h-6l-4 6-1 4 2-1v-2l7-1v-2h3l1-4 2 1 2 5 2 4 3 3-2 6 1 2-1 2h-7l-8-3v-3l-3 1h-8l-4-1-2-5-2 2 1 4-2 5-5-3-2 1-2-7-6 1-2-6-1-7h-2v-2l6-1 1-2 2 1 1-5 5 1 2 5-3 2h-4l6 1 2-3 2 1 4 3 1-4-1-4 3-3h3l8-4 6-2-7-3-1-3v-3l4-2 4 1 5-3 4-1 2 3 5-1h4l-1-3 6-1 3 4 5-2 1-2h8z" fill="#E62A3A"/>
<path transform="translate(429,468)" d="m0 0 11 2 8 5 6 7 3 9-1 12-5 9-8 7-9 3h-8l-10-4-5-4-5-8-1-3v-14l5-10 8-7z" fill="#D5392F"/>
<path transform="translate(1105,134)" d="m0 0 10 1 9 6 6 8 2 5v14l-4 8-5 6-9 5-8 1-9-2-9-6-6-9-2-12 2-9 6-8 5-4 6-3z" fill="#D4372D"/>
<path transform="translate(895,1407)" d="m0 0 10 1 8 4 6 7 4 10v8l-3 9-8 10-9 4h-10l-8-3-8-7-4-7-2-6 1-10 5-10 7-6 6-3z" fill="#D5382F"/>
<path transform="translate(1282,1335)" d="m0 0 10 1 8 4 5 4 6 12v9l-4 11-6 7-7 4-3 1h-13l-8-4-7-8-3-7v-14l5-10 8-6z" fill="#D5382E"/>
<path transform="translate(717,204)" d="m0 0h12l8 4 8 9 3 9v8l-3 10-8 9-6 3-4 1h-8l-9-3-8-7-5-10v-11l4-9 7-8z" fill="#D53930"/>
<path transform="translate(1569,1073)" d="m0 0h10l7 3 8 7 3 6 1 4v12l-4 10-7 7-9 4-13-2-8-4-6-7-3-9v-10l3-8 7-8z" fill="#EE615C"/>
<path transform="translate(568,897)" d="m0 0h6l5 5 4 2 9 3 5 6 1 6 1 4 3 1v2l6 2 2 7 1 2-1 6h-6l-4 2-3 1v2l-17 1v-2l-3-1-1-4-3-3-5-7-2-7 2-3-5-3v-2l-3 1v-8l3 1 1-5-1-2 3-1-1-3 3-1z" fill="#E62A3A"/>
<path transform="translate(317,544)" d="m0 0h2v7l-16 50-7 29-7 33-5 31-3 8-2 3-2 4-1-4h-3v-8l7-42 8-35 10-37 11-33 3-1 1-2 1-1h3z" fill="#D5382F"/>
<path transform="translate(1737,815)" d="m0 0h3v2l3 1-1 29-3 32-2 13-3 23-2 12-8 39-11 42-3 1-5-2 1-8 7-24 8-35 4-21 1-2 1-14 3-19 5-52 1-14z" fill="#D73C33"/>
<path transform="translate(1384,1417)" d="m0 0h4v9l-24 14-16 9-19 10-28 13-29 12-9-1-1-7 21-8 27-12 23-11 20-10 23-13z" fill="#AB3122"/>
<path transform="translate(1703,1011)" d="m0 0h7l1 2-14 41-14 34-9 20-9 19-10 19-15 26-2 2 2-9 6-9 2-6-10 16-4 7-4 6-2 4-3-2 13-21 14-26 16-32 11-26 11-28 10-30z" fill="#D43D33"/>
<path transform="translate(1648,1148)" d="m0 0 1 3-2 5-6 9-4 12-12 19-10 15-13 18-7 9-10 13-11 14-8 10-9 11h-2l-2 4-16 16h-5l3-10 8-8 1-2h2l2-4 13-14 9-11 10-12 12-16 10-13 17-26 5-8h4l3-6 7-12 7-11z" fill="#B03224"/>
<path transform="translate(396,906)" d="m0 0h2l7 16 1 3-3 2h-3l-2 4-7 6h-2v2l-6-1-10 5-3 3-2 1-3 2h-3l2 4-5-2-7-4 1-2h3l1-4h4l1-3 3-5 6-5 3-1 1-2h2l2-6 5-2 1-3z" fill="#EE605B"/>
<path transform="translate(1103,1517)" d="m0 0h8l-1 4-5 1-2-1v2l-5 3-6 2-8 2-10 1-30 1h-31l1-8 9-1 19 1 3-3 38-3h18z" fill="#A72F20"/>
<path transform="translate(884,683)" d="m0 0h5v3h-2l1 6 7 1 6-1 1-2h2v-3l8 1 3-2 1 6 7-1 2-5 6-1 1 4-1-2h-2l4 4h4l-2 9-2 1-4-2v-2l-6 2h-7l-2-1v-3l-3 3h-2v-2h-3l-1 3-11 1-3 4-6 1-3-1v-2h-2l-1-4-1 1h-6l-2 1-2-1-1 4-3-3-4-8v-2h5l2-2 7-2 4-2z" fill="#D4362D"/>
<path transform="translate(13,921)" d="m0 0 5 2 1 9v27l1 10-1 9-1 2 2 1-3 2-17-34v-14l9-11z" fill="#EE635E"/>
<path transform="translate(1725,919)" d="m0 0h6l2 1-5 28-7 29-8 31-3 1-5-2 1-8 7-24 8-35z" fill="#D13A30"/>
<path transform="translate(1143,71)" d="m0 0 9 1 23 5 35 9 22 7 2 4-1 2 2 1-5 1-40-11-21-6-15-3-2-1-9-1v-1l5-1 1-3-6-2z" fill="#AC3123"/>
<path transform="translate(658,837)" d="m0 0 11 1 10 6 8 8 2 7h-8l-4-1-13-1-12-3-5-5-9 3-2-1 2-4 8-6 7-3z" fill="#D4382E"/>
<path transform="translate(1405,109)" d="m0 0 9 5 17 10 8 6 20 12 8 7 2 2-4 1-13-1-9 1-9-5-5-6-1-6 1-3-2-1v-2l-5-2-7-6v-2l-4-1-6-7z" fill="#EE625D"/>
<path transform="translate(1233,94)" d="m0 0 11 3 30 11 22 9 15 7 1 4h-3v2l-9-3-39-15-22-8-7-2 1-6z" fill="#D6392F"/>
<path transform="translate(1585,1243)" d="m0 0 1 4-4 8-12 15-9 11-4 5h-2l-2 4-16 16h-5l3-10 8-8 1-2h2l2-4 13-14 9-11 8-7 1-2 4-2z" fill="#AE3223"/>
<path transform="translate(385,1207)" d="m0 0 1 2 9-2h12v2l14-1 5 1-3 2-8 3-9 6-15 7-4-1-6-10-4-8h6z" fill="#EE635E"/>
<path transform="translate(922,62)" d="m0 0h8l-3 2h-5v4l2 1h11v1l-31 3-29 5-13 1-1-5 8-4 23-4 15-1v2h3v-3z" fill="#D63A31"/>
<path transform="translate(978,1522)" d="m0 0h67l-3 3-28-1v6l-1 2 31-1h19v1l-18 1h-80v-1l11-1 5-2 7-1 1-3-11-2z" fill="#D5382E"/>
<path transform="translate(282,697)" d="m0 0 1 4-4 36-1 14-3-3v-3l-2-2v-4l2-4h-2l-1 3-3 1 2-24 1-10h4l1 3 2-7z" fill="#D53A31"/>
<path transform="translate(280,944)" d="m0 0 11 4 5-1 9-1 1-1h6l-2 2-21 9-17 8-16 8v-2h2l1-3 4-5 3-1 1-3 9-2 1-4v-2h-2v-3z" fill="#EE6560"/>
<path transform="translate(849,779)" d="m0 0 13 1v2h7l1-2 1 2 2-2 2 9 2 7-11-1h-6v2l-4-2-3-6-8-3-1-6z" fill="#D6392F"/>
<path transform="translate(954,1522)" d="m0 0h8l4 1 1-1h11l12 2-2 5-9 1-3 2h-15l-9-1-7-3 3-3 5-1z" fill="#A42E1E"/>
<path transform="translate(1310,125)" d="m0 0 6 1 16 8 15 8 4 4 3 1v4l1-2 4 1 2 6-5-1-14-8-8-5-18-8-7-3-1-4h3z" fill="#B93528"/>
<path transform="translate(1347,142)" d="m0 0 7 3 7 4 2 4 3 2 10 2 25 15 13 9-3 1-11-8-12-3-1 2-14-9-4-3-10-4 1-4-2-1 1-2-5 1v-4l-4-1-3-2z" fill="#D44036"/>
<path transform="translate(1259,1477)" d="m0 0h3l2 5 5 2-3 2-22 8-2-1-4-4-5-2 3-2z" fill="#D3382E"/>
<path transform="translate(845,750)" d="m0 0h2l-1 4h-2l1 5-1 2 2 1-1 3h2l1 3-5 5-4 2 2 6-3-3-8-17 1-4z" fill="#D5382F"/>
<path transform="translate(704,1466)" d="m0 0h6l3 3 10 3h3l4-3 6 2-3 1v2h2l2 4 3 2 8 1 3 3 12 6v1l-8-1-28-11-24-10z" fill="#AC3122"/>
<path transform="translate(317,544)" d="m0 0h2v7l-7 21h-2l-1 4h-2l-2-2h-3l1-7 6-17 3-1 1-2 1-1h3z" fill="#AF3123"/>
<path transform="translate(554,870)" d="m0 0 3 1 5 5 1 7 3 5-1 4h-2l-1 5-6 1-3-2 1-8-5-15z" fill="#E52D3C"/>
<path transform="translate(1428,554)" d="m0 0 3 1 9 19-1 4h-7l-6-3-6-7 1-5h2l1-2 3-4-1-2z" fill="#A62F1F"/>
<path transform="translate(1046,319)" d="m0 0h21l30 5 8 2 1 3h-11l-18-3-33-4-5-1v-1z" fill="#C0382C"/>
<path transform="translate(484,853)" d="m0 0 4 2 3 1-36 18-2-1 1-4h2l-2-4-4-3v-2l9-2 2 1v2l6-1 9-1 5-3 3-1z" fill="#EE6560"/>
<path transform="translate(1143,71)" d="m0 0 9 1 23 5 20 5-2 2h-7l-6-2h-8l-6 1-12-2-2-1-9-1v-1l5-1 1-3-6-2z" fill="#D43A30"/>
<path transform="translate(1648,1148)" d="m0 0 1 3-2 5-6 9-4 12-12 19-8 12-2-1v-6l6-8 2-5h2v-6h3l3-6 7-12 7-11z" fill="#AF3223"/>
<path transform="translate(697,972)" d="m0 0h7l3 3h2l2-3h28l4 1v2l-5 1h-12l-6 2h-4v2l-6-1-5 1-9-4-10-2v-1z" fill="#EE645F"/>
<path transform="translate(568,1378)" d="m0 0 4 1 17 12v3h2v2l-4 1-1 2h-3v-2l-5-1-8-4-3-10-1-3z" fill="#A83020"/>
<path transform="translate(799,700)" d="m0 0 3 2-54 27-2-1 5-5h3v-2l5-4h5v-2l6-3 3-3 4-1 3-2h6v-2l4 1v-2h6v-2z" fill="#EE645F"/>
<path transform="translate(1113,1514)" d="m0 0 4 1-4 2-1 2 3-1 5 1 4-1 4 1h-2v2h3v2l-8 2h-4l-1-2-2 3-21 3-3-1 7-3 6-2v-2h7v-3h-7l-2 1h-9l-1-2z" fill="#D73A31"/>
<path transform="translate(1387,170)" d="m0 0 5 1 9 3 10 7 7 3 4 3v2h2l-1 4h-5l-10-7-19-12z" fill="#AF3224"/>
<path transform="translate(1438 1e3)" d="m0 0 1 4-11 22-12 20-3 3-1-5 11-19 10-20z" fill="#C13E32"/>
<path transform="translate(336,497)" d="m0 0h1v7l-9 23-5 12-3 1-1-5v-3h2l2-5v-4-3l2-2 6-12h2l-1-4z" fill="#B03223"/>
<path transform="translate(757,385)" d="m0 0h5v3l-14 8-21 14-4 1-1-3 16-11 14-9z" fill="#B43527"/>
<path transform="translate(780,874)" d="m0 0h2l1 5-2 4-22 2-3-2 2-5 10-2 8 1v-2z" fill="#D4362C"/>
<path transform="translate(1281,1185)" d="m0 0h2l-1 5-23 15-9 5h-5l1-3 20-12z" fill="#B53527"/>
<path transform="translate(1365,1111)" d="m0 0 1 4-4 5h-2l-2 4-22 22h-5l2-4 8-7 9-9 7-8z" fill="#B13224"/>
<path transform="translate(1186,1236)" d="m0 0h3v2h2v2l-25 10-8 2 1-6 22-8z" fill="#B83427"/>
<path transform="translate(927,1265)" d="m0 0 13 1 16 2-2 2h-3l-1 2-2 2-14-1-8-2 1-2h2v-2h-2z" fill="#D5392F"/>
<path transform="translate(951,318)" d="m0 0h6l3 3-1 2-13 2-21 1v-3l6-2z" fill="#B9372A"/>
<path transform="translate(861,338)" d="m0 0h2v3l2 1-32 11-3-1-1-3 19-7z" fill="#D83C33"/>
<path transform="translate(979,818)" d="m0 0h4l3 1v3l10-3 4 1 1 4-2 3-2-1-1 2h-6l-3 1-2-2-6 1-1-5z" fill="#D4352C"/>
<path transform="translate(883,69)" d="m0 0 7 1v2h2v3l-17 3-13 1-1-5 12-3 5 3h2l1-2h2z" fill="#A93021"/>
<path transform="translate(674,448)" d="m0 0h4l-1 4-8 7-16 16-4-1 7-8z" fill="#C2382C"/>
<path transform="translate(1901,666)" d="m0 0 4 1 2 4-1 6 6 2-2 4h-6l-6-3-1-5 2-1 1-7z" fill="#EE5F5A"/>
<path transform="translate(315,1185)" d="m0 0 3 3 11 22-1 4v-2l-4-2-4-5-3-5-2-3z" fill="#AB3122"/>
<path transform="translate(1339,139)" d="m0 0 5 1 7 6 3 1v4l1-2 4 1 2 6-5-1-14-8-6-4v-2h2z" fill="#AE3224"/>
<path transform="translate(1591,1230)" d="m0 0 2 4h-2l1 3 2 2-9 12-2 1 2-5v-3l-3 4h-3l-2 4-4 3 2-4 11-14z" fill="#CA382D"/>
<path transform="translate(1729,627)" d="m0 0 1 2 4-1 2 2-1 4-5 3h-13l-2-2z" fill="#EB5C57"/>
<path transform="translate(982,833)" d="m0 0 6 3 2 3-2 4-4 1-10-2-1-4 3-4z" fill="#D63A30"/>
<path transform="translate(1650,1142)" d="m0 0 1 2-9 16-7 10-3 6-3 7-4-2 13-21 9-16z" fill="#D83C33"/>
<path transform="translate(941,1588)" d="m0 0h9l5 1h11v4h-23l-7-1 3-2h2z" fill="#E14B44"/>
<path transform="translate(1694,258)" d="m0 0h5l10 4 1 3-2 4h-2l-1 3-4-1-4-9-3-2z" fill="#EE5F5A"/>
<path transform="translate(2038,602)" d="m0 0 9 3 1 11-4-1v-2l-4-1-6-5v-2z" fill="#EE5F5A"/>
<path transform="translate(726,855)" d="m0 0 4 2-1 3-5 2-8 4v4l-2 1-5-2-2-1 4-4z" fill="#D63C32"/>
<path transform="translate(1046,319)" d="m0 0h21l6 4v1h-12l-22-3v-1z" fill="#AD3223"/>
<path transform="translate(988,566)" d="m0 0h18l1 3-1 2-5-1-3 3-7 2-3-3z" fill="#EE5F5A"/>
<path transform="translate(1090,494)" d="m0 0h9l6 4v5l-3 1v-2l-7 2-2-6h-3z" fill="#ED5E59"/>
<path transform="translate(1624,1182)" d="m0 0 2 1-1 5-2 1-2 5-5 7-3 6-5 4-2-1 13-20z" fill="#DA443B"/>
<path transform="translate(968,686)" d="m0 0 6 2 2 3v3h-2v2h-13l-4-4 4-3v2l12 2-1-3-8-1 1-2z" fill="#D4362C"/>
<path transform="translate(1704,1017)" d="m0 0h2l-2 11h-2l-1 5h2l-2 6-5 14-3-2 2-3-1-2 1-4h2v-3l3-12h2l1-7z" fill="#A82E1F"/>
<path transform="translate(1474,213)" d="m0 0 6 2 3 4-2 4-9-1-2-2 1-5z" fill="#EE5F5A"/>
<path transform="translate(1194,449)" d="m0 0 5 1 2 1v4l5 2v4h-6l-4-4-3-1v-6z" fill="#EE5F5A"/>
<path transform="translate(975,317)" d="m0 0h16l-2 2-5 3-20-1v-2l2-1h7z" fill="#A42E1E"/>
<path transform="translate(596,544)" d="m0 0h2l-1 7-7 13-5 2 4-8 1-4z" fill="#C1372C"/>
<path transform="translate(704,1466)" d="m0 0h6l3 3 8 3 5 4 1 2-10-3-14-6z" fill="#BB3629"/>
<path transform="translate(1802,388)" d="m0 0 3 1 1 5 2 1v3l-13 1 2-5 1-2 3-1z" fill="#EE5F5A"/>
<path transform="translate(971,316)" d="m0 0h19v1l-15 1-3 1h-8v2h16v1h-21l-3-3 4-2z" fill="#DA3F36"/>
<path transform="translate(1046,884)" d="m0 0 4 2 1 6-2 2-7-1-1-1v-5z" fill="#F18682"/>
<path transform="translate(1828,448)" d="m0 0 4 2-1 4-8 2-5-1 1-5z" fill="#F28E8A"/>
<path transform="translate(941,689)" d="m0 0 9 1-4 3v6l-7 1-1-1v-6l3-1z" fill="#D4362C"/>
<path transform="translate(688,751)" d="m0 0 5 1 1 5-2 2-6-1h-4l-4-2v-3l5 1v2h3l-1-3h3z" fill="#E72A3B"/>
<path transform="translate(914,718)" d="m0 0 3 1v6h-9v-2l-4 2h-5v-3l2-2 1 1h6z" fill="#D4372D"/>
<path transform="translate(928,467)" d="m0 0 4 1 1 2 2-2 4 1v6l-5 2-5-1-1-2 1-3h2v-2h-5z" fill="#EF726D"/>
<path transform="translate(697,232)" d="m0 0 2 4 5 1 2 6 2 4-2 4-6-7-3-7z" fill="#EE6762"/>
<path transform="translate(278,693)" d="m0 0 3 1 1 4-4 11-2-1v-3l-3-1 2-7z" fill="#A32E1E"/>
<path transform="translate(1038,1590)" d="m0 0h8v1l-7 2 10 1v1l-30 2-3 1 1-4 19-2z" fill="#E7544E"/>
<path transform="translate(740,904)" d="m0 0 11 3 5 5 3 4-5-2-8-4-9-3z" fill="#D73B31"/>
<path transform="translate(934,874)" d="m0 0h5l2 5 1 5-7 1-2-1z" fill="#D4362C"/>
<path transform="translate(998,834)" d="m0 0 4 2 1 6-3 2-6-1-2-4z" fill="#D73B32"/>
<path transform="translate(1438 1e3)" d="m0 0 1 4-5 10-3 1-1 2h-2l2-6 6-10z" fill="#BF3B2E"/>
<path transform="translate(979,768)" d="m0 0 4 2v7l-4 1-6-2 4-6z" fill="#D4352C"/>
<path transform="translate(1143,71)" d="m0 0 9 1 6 1v3 1l-6 2h-9v-1l5-1 1-3-6-2z" fill="#D63B32"/>
<path transform="translate(880,68)" d="m0 0h6l-3 4h-2l-1 3-9-3-6 1 1-2z" fill="#D6392F"/>
<path transform="translate(1121,1518)" d="m0 0h7l-2 1v2h3v2l-8 2h-4l-1-5z" fill="#DB463E"/>
<path transform="translate(1422,1033)" d="m0 0 2 1-10 16-2-1 1-5 5-9z" fill="#C24237"/>
<path transform="translate(777,863)" d="m0 0 9 1v2l-5 1-1 5h-2v-2l-5 2-1-2h3v-3h-2l-1 2v-3z" fill="#D4362C"/>
<path transform="translate(1092,324)" d="m0 0 9 1 4 1 1 3h-11l-11-2v-1l8-1z" fill="#C6392D"/>
<path transform="translate(1800,777)" d="m0 0h2v20l-3 1-1-3 1-17z" fill="#A92F1F"/>
<path transform="translate(1156,74)" d="m0 0h7v2l4 2-3 3-12-2 1-2 4-1z" fill="#AB3021"/>
<path transform="translate(1907,545)" d="m0 0 4 2 1 3-8 4-2-1v-2l-3-1v-3l5 1 1 3 1-4z" fill="#EE5F5A"/>
<path transform="translate(1047,545)" d="m0 0 4 1-1 6-3 6-4-1 2-8z" fill="#EE5F5A"/>
<path transform="translate(353,459)" d="m0 0 2 1-1 7-3 6-2 1-1 3h-2l1-5 3-8z" fill="#B63325"/>
<path transform="translate(1778,331)" d="m0 0 4 1 4 5v3h-6l-4-4z" fill="#EE6762"/>
<path transform="translate(1706,538)" d="m0 0 4 1 2 1 1-2 4 1 2 3-4 2h-3l-6-1-1-3z" fill="#F07A76"/>
<path transform="translate(1422,187)" d="m0 0 7 4 5 5-10 1-4-4h3l1-4h-2z" fill="#D83F36"/>
<path transform="translate(1347,142)" d="m0 0 7 3 7 4 2 4 2 2-2 1-1 2-3-2 1-3-2-1 1-2-5 1v-4l-4-1-3-2z" fill="#D64037"/>
<path transform="translate(714,788)" d="m0 0 5 1 1 3h2l-1 4-7-1-2-5z" fill="#F39C99"/>
<path transform="translate(1690,341)" d="m0 0 5 2 1 2-2 4-8-1-2-3 5-3z" fill="#EE6C68"/>
<path transform="translate(883,69)" d="m0 0 7 1v2h2v3l-12 1 1-4h2z" fill="#AE3224"/>
<path transform="translate(887,695)" d="m0 0 5 3-1 4-5 1-3-3-1-3z" fill="#EE5F5A"/>
<path transform="translate(1837,180)" d="m0 0h2l5 11v2l-4-1-4-6z" fill="#AF3325"/>
<path transform="translate(1113,1514)" d="m0 0 4 1-6 3h-8l-2 1h-9l-1-2z" fill="#D93E35"/>
<path transform="translate(1657,365)" d="m0 0 2 1v5h2v2h2v2l-4 2-4-1v-9z" fill="#EF716D"/>
<path transform="translate(1204,85)" d="m0 0 9 2 13 4-2 4-12-6h-7z" fill="#D83F36"/>
<path transform="translate(697,792)" d="m0 0 3 1 5 6 4 4-1 3-1-2h-2l-5-5-5-4v-2z" fill="#D83F36"/>
<path transform="translate(666,458)" d="m0 0 1 3-14 14-4-1 8-7z" fill="#A42E1E"/>
<path transform="translate(1023,1522)" d="m0 0h22l-3 3-19-1z" fill="#D2352B"/>
<path transform="translate(683,712)" d="m0 0 1 2h6l-1 3-4 1v2h-5v-3z" fill="#D4362C"/>
<path transform="translate(903,576)" d="m0 0 7 1 2 4-1 4-4-1-1-4-3-2z" fill="#EE5F5A"/>
<path transform="translate(954,1269)" d="m0 0 6 2v3h-12v-3z" fill="#A42E1E"/>
<path transform="translate(1566,848)" d="m0 0 8 1-1 2h-2l-2 4h-4l-1-5h2z" fill="#EE5F5A"/>
<path transform="translate(939,775)" d="m0 0h12l2 3-7 2h-6l2-3z" fill="#D4362C"/>
<path transform="translate(649,709)" d="m0 0h3v4l-3 3-4-1-4 1 2-4 2-2z" fill="#E62A3A"/>
<path transform="translate(1e3 770)" d="m0 0h3l1 4-2 3-5-1v-2h-2v-2z" fill="#D4362C"/>
<path transform="translate(1856,333)" d="m0 0 6 2-3 4-6-1-3-2v-2z" fill="#EE5F5A"/>
<path transform="translate(1591,1237)" d="m0 0 3 2-9 12-2 1 3-9 3-4h2z" fill="#D83F36"/>
<path transform="translate(1006,936)" d="m0 0 4 1 1 7-5 2-2-1v-3l2-1z" fill="#EE5F5A"/>
<path transform="translate(1059,548)" d="m0 0h3v3h3v9h-3l-2-7z" fill="#EE5F5A"/>
<path transform="translate(669,714)" d="m0 0h4l1 4 3 2-6 2-2-4-3-1z" fill="#D4362C"/>
<path transform="translate(963,688)" d="m0 0 9 1 1 4h-8l-4-2v-2z" fill="#EF6A65"/>
<path transform="translate(956,511)" d="m0 0 3 1-1 4-5 2h-3l-1-3z" fill="#EE6661"/>
<path transform="translate(852,76)" d="m0 0h5l2 2v3h-9l-1-3z" fill="#A92F20"/>
<path transform="translate(1586,1239)" d="m0 0 1 2-5 7h-3l-2 4-4 3 2-4 7-9z" fill="#D53D34"/>
<path transform="translate(1011,921)" d="m0 0 5 1v4l-5 2-2-1 1-5z" fill="#EF6E6A"/>
<path transform="translate(775,558)" d="m0 0 4 2-1 5-3 1v3h-3l1-4 1-3z" fill="#EE5F5A"/>
<path transform="translate(1220,437)" d="m0 0 3 1 2 4v3h-5l-2-3 1-4z" fill="#EF6B66"/>
<path transform="translate(1430,195)" d="m0 0 4 2 3 7-4-2-7-4 1-2z" fill="#AE3123"/>
<path transform="translate(1646,1157)" d="m0 0 1 3-8 14-1-3 4-10z" fill="#DB4C43"/>
<path transform="translate(1067,526)" d="m0 0h2v3l5 1 1 1v5l-1-2-4-1-4-3z" fill="#EE5F5A"/>
<path transform="translate(1504,500)" d="m0 0 4 1v3h6v4l-7-2v-2l-3-1z" fill="#EE635E"/>
<path transform="translate(1474,215)" d="m0 0 5 1 1 4-1 1h-6l-2-4z" fill="#FDFDFD"/>
<path transform="translate(1705,1019)" d="m0 0 2 2-1 7-2 6-3-1 1-5h2l-1-3z" fill="#D54137"/>
<path transform="translate(951,871)" d="m0 0 3 1v2l3 1-1 2h-2l-1 2-4-2-1-4z" fill="#D4362C"/>
<path transform="translate(1615,1199)" d="m0 0 1 2-3 6-5 4-2-1 6-9z" fill="#D43A30"/>
<path transform="translate(1633,1170)" d="m0 0 1 3-4 6-2 4-3-2 6-10z" fill="#D6392F"/>
<path transform="translate(1030,802)" d="m0 0 1 2 4 1v3l-7 1-1-5z" fill="#E62A3A"/>
<path transform="translate(1828,507)" d="m0 0 5 2-1 4-4 1-2-2v-4z" fill="#EE5F5A"/>
<path transform="translate(1822,449)" d="m0 0 1 4h3v2l-7 1-1-5z" fill="#EE5F5A"/>
<path transform="translate(1827,656)" d="m0 0 5 2v2l-11 1-1-4z" fill="#EE5F5A"/>
<path transform="translate(891,525)" d="m0 0 4 2-1 4-6 1 1-5z" fill="#EE5F5A"/>
<path transform="translate(1098,511)" d="m0 0 4 1 1 3-2 5-1-2-4-1 1-5z" fill="#EF716C"/>
<path transform="translate(1792,320)" d="m0 0 5 1v4l-1 1h-5v-5z" fill="#EE5F5A"/>
<path transform="translate(1533,1299)" d="m0 0 1 3v2l-4-1zm-4 4m-1 1 3 2-1 2-4-1z" fill="#C73328"/>
<path transform="translate(591,949)" d="m0 0 10 4-1 3-6-2-5-2z" fill="#E62A3A"/>
<path transform="translate(1147,1030)" d="m0 0 10 1v3h-10z" fill="#EE5F5A"/>
<path transform="translate(1010,874)" d="m0 0h2v2h2v4l-5 1v-2h-2l1-4z" fill="#E52B39"/>
<path transform="translate(529,828)" d="m0 0 7 1v4h-7l-1-4z" fill="#EE635E"/>
<path transform="translate(522,806)" d="m0 0h7l1 3-1 2-6-1z" fill="#EE635E"/>
<path transform="translate(674,448)" d="m0 0h4l-1 4-6 5-3-1 4-4z" fill="#B2392B"/>
<path transform="translate(1534,299)" d="m0 0h8l2 2v3l-9-2z" fill="#EE5F5A"/>
<path transform="translate(1456,176)" d="m0 0 11 2-1 2-10 2z" fill="#F07672"/>
<path transform="translate(357,769)" d="m0 0 4 2v3l-6 1v-3h-2v-2z" fill="#EE5F5A"/>
<path transform="translate(756,606)" d="m0 0 2 1 2 8-4 1-1-1v-8z" fill="#EE5F5A"/>
<path transform="translate(1685,350)" d="m0 0 4 2 3 5-4 1-3-4z" fill="#EF726E"/>
<path transform="translate(1389,347)" d="m0 0 3 1v4l-7 1-1-3z" fill="#EE5F5A"/>
<path transform="translate(1276,112)" d="m0 0 5 2 1 4 5 1v1l-7-1-3-1z" fill="#AF3223"/>
<path transform="translate(1648,1148)" d="m0 0 1 3-2 5-5 7h-2l2-5z" fill="#A32E1E"/>
<path transform="translate(1435,1008)" d="m0 0 1 3-2 4-3 1-1 2h-2l2-6 2-2z" fill="#B53629"/>
<path transform="translate(821,861)" d="m0 0h3l2 6-3 1-4-2z" fill="#EE6964"/>
<path transform="translate(721,690)" d="m0 0h4l1 5-4 1-3-1 1-4z" fill="#E72A3B"/>
<path transform="translate(1266,109)" d="m0 0 5 2v3l2 1-7-1-3-3z" fill="#AF3325"/>
<path transform="translate(557,828)" d="m0 0 4 1-1 5-4 1-1-4z" fill="#EE5F5A"/>
<path transform="translate(273,735)" d="m0 0h2l-1 4v4l-1 2-3-1 1-6z" fill="#A32E1E"/>
<path transform="translate(589,556)" d="m0 0h4l-1 5-5 5-2-1 4-7z" fill="#AB3122"/>
<path transform="translate(1870,431)" d="m0 0 4 1v4l-7 1v-4z" fill="#EE5F5A"/>
<path transform="translate(1790,398)" d="m0 0h4l-2 4-8 1-1-2z" fill="#EE5F5A"/>
<path transform="translate(827,350)" d="m0 0 4 2-3 3-4 1v-2h-2v-2z" fill="#D23A30"/>
<path transform="translate(1474,432)" d="m0 0 4 1v2h-3v3l-5 2 1-4h2z" fill="#EE5F5A"/>
<path transform="translate(1667,342)" d="m0 0h6l2 4h-3l-6 1z" fill="#F5ABA8"/>
<path transform="translate(1016,1594)" d="m0 0h12l1 2-10 1-3 1z" fill="#EA5E59"/>
<path transform="translate(332,861)" d="m0 0h2v2l3 1 1 3h-3l-5-2z" fill="#EE5F5A"/>
<path transform="translate(1912,664)" d="m0 0h3l1 5-6 1 1-5z" fill="#EE5F5A"/>
<path transform="translate(1767,659)" d="m0 0 3 3-3 4h-5l3-6z" fill="#EE5F5A"/>
<path transform="translate(1753,427)" d="m0 0 7 1 2 2-5 6-1-4v-3z" fill="#F07B77"/>
<path transform="translate(1648,252)" d="m0 0 2 1-1 9h-3l1-9z" fill="#EF6A65"/>
<path transform="translate(512,249)" d="m0 0 4 1h3l-5 5-4-2v-2h2z" fill="#EC615C"/>
<path transform="translate(694,718)" d="m0 0h3v5l-2 3h-2l-1-6h2z" fill="#D4362C"/>
<path transform="translate(1533,618)" d="m0 0h6l1 4-3 1-5-2z" fill="#ED635E"/>
<path transform="translate(1495,550)" d="m0 0h2l-2 4h-8v-2z" fill="#EE5F5A"/>
<path transform="translate(1034,522)" d="m0 0 3 2-1 4h-3l-1-2h-3l1-3z" fill="#EE5F5A"/>
<path transform="translate(1461,1450)" d="m0 0 2 2-12 8v-3z" fill="#F07773"/>
<path transform="translate(1318,940)" d="m0 0 4 2-1 4-5-1v-4z" fill="#EE5F5A"/>
<path transform="translate(1666,732)" d="m0 0 4 2 1 5h-4l-2-3z" fill="#EE5F5A"/>
<path transform="translate(1782,690)" d="m0 0h5v5l-6-1z" fill="#EE5F5A"/>
<path transform="translate(1854,490)" d="m0 0 5 1-2 3h-2v2l-3-1v-4z" fill="#EE5F5A"/>
<path transform="translate(1820,145)" d="m0 0 3 3 3 6v2h-2l-2-4-3-2z" fill="#B03324"/>
<path transform="translate(1347,142)" d="m0 0 7 3 3 2-1 4h-2v-4l-4-1-3-2z" fill="#DF5C55"/>
<path transform="translate(982,1591)" d="m0 0 4 1 1 3-5-1-2-2z" fill="#F39794"/>
<path transform="translate(993,1595)" d="m0 0h4v3h-2v-2z" fill="#EF726E"/>
<path transform="translate(987,1596)" d="m0 0" fill="#FDFDFD"/>
<path transform="translate(984,1586)" d="m0 0" fill="#EE5F5A"/>
</svg>
